# xmcd
#
# Track frame offsets:
#	150
#	14875
#	27717
#	52690
#	68452
#	88658
#	141758
#	173178
#	189654
#	216746
#
# Disc length: 3329 seconds
#
# Revision: 1
# Processed by: cddbd v1.5.2PL0 Copyright (c) Steve Scherf et al.
# Submitted via: audiograbber 1.83.01
#
DISCID=930cff0a
DTITLE=One Way Out Blues Connection - Live im Live (Hamburg) 2007
DYEAR=2007
DGENRE=Blues
TTITLE0=Sweet Home Chicago
TTITLE1=6345789
TTITLE2=After You
TTITLE3=Hello Josephine
TTITLE4=Got To Be This Way
TTITLE5=How Blue Can You Get
TTITLE6=Stormy Monday
TTITLE7=Get It Right
TTITLE8=Rollin' And Tumblin'
TTITLE9=Hoochie Cootchie Man
EXTD=
EXTT0=
EXTT1=
EXTT2=
EXTT3=
EXTT4=
EXTT5=
EXTT6=
EXTT7=
EXTT8=
EXTT9=
PLAYORDER=
